<svg xmlns="http://www.w3.org/2000/svg" viewBox="0 0 817 817" width="100" height="100">
	<defs>
		<clipPath clipPathUnits="userSpaceOnUse" id="cp1">
			<path d="M0 0L817 0L817 817L0 817Z" />
		</clipPath>
	</defs>
	<style>
		tspan { white-space:pre }
		.shp0 { fill: #000000 } 
	</style>
	<g id="Page 1" clip-path="url(#cp1)">
		<path id="Path 1" class="shp0" d="M601.5 222L773.33 267.16L816.67 95.34L783.67 86.67L755.5 193.83C683.5 77.67 555 0.33 408.33 0.33C182.84 0.33 0 183.17 0 408.67C0 634.16 182.84 817 408.33 817C558.83 817 690.17 735.67 761 614.5L731.5 598.5C666.33 709.16 546 783.5 408.33 783.5C201.34 783.5 33.5 615.66 33.5 408.67C33.5 201.67 201.34 33.83 408.33 33.83C547.17 33.83 668.5 109.33 733.17 221.66L610.16 189L601.5 222Z" />
		<path id="Path 2" fill-rule="evenodd" class="shp0" d="M400.33 589.84L400.33 558.67C362.17 555.17 327.34 539.66 296.17 511.83L327.34 475.33C351.5 496.17 375.83 508.33 400.16 511.83L400.16 430.33C369 423.33 344.67 413 330.84 400.83C315.33 388.66 308.33 369.5 308.33 345.34C308.33 321.17 317 300.33 334.33 284.67C351.67 269 374.33 260.34 400.33 258.67L400.33 237.83L426.34 237.83L426.34 258.67C457.5 260.34 487 270.67 514.84 289.84L487 328C468 314 448.84 307.17 426.34 303.67L426.34 383.5L428 383.5C461 390.33 483.5 400.83 499.17 414.66C514.66 426.83 521.66 446 521.66 472C521.66 496.17 513 517 495.67 532.67C478.34 548.33 455.84 557 426.34 558.67L426.34 589.84L400.33 589.84ZM428 515.33C440 513.5 450.5 510.16 459.16 503.16C467.83 496.17 471.33 489.33 471.33 478.83C471.33 468.34 467.83 461.5 462.66 454.5C455.84 449.17 445.34 444 428 438.83L428 515.33ZM400.16 380L400.16 305.33C386.34 307.17 377.67 310.5 369 317.5C362.17 324.5 358.67 331.5 358.67 341.84C358.67 350.5 362.17 359.16 367.33 364.33C372.5 369.5 382.84 374.67 400.16 380Z" />
	</g>
</svg>