<svg xmlns="http://www.w3.org/2000/svg" viewBox="0 0 854 644" width="40" height="30">
  <defs>
    <clipPath clipPathUnits="userSpaceOnUse" id="cp1">
      <path d="M0 0L854 0L854 644L0 644Z" />
    </clipPath>
  </defs>
  <style>tspan { white-space:pre }.shp0 { fill: #000000 } </style>
  <g clip-path="url(#cp1)">
    <path fill-rule="evenodd" class="shp0" d="M853.34 535.33C853.34 554.04 848.07 571.38 839.63 586.64L570.21 285.18L836.72 52C847.09 68.45 853.34 87.78 853.34 108.66L853.34 535.33ZM55.86 15.44C71.01 7.1 88.15 2 106.66 2L746.66 2C765.15 2 782.29 7.1 797.5 15.44L426.67 339.91L55.86 15.44ZM802.91 625.59C786.56 635.85 767.4 642 746.66 642L106.66 642C85.94 642 66.77 635.85 50.41 625.59L323.26 320.28L409.11 395.43C414.14 399.81 420.39 402 426.67 402C432.94 402 439.19 399.81 444.22 395.44L530.05 320.28L802.91 625.59ZM283.1 285.12L13.7 586.64C5.23 571.38 0 554.04 0 535.33L0 108.66C0 87.78 6.25 68.45 16.62 52L283.1 285.12Z" />
  </g>
</svg>