<svg xmlns="http://www.w3.org/2000/svg" viewBox="0 0 575 679" width="19" height="23">
  <defs>
    <clipPath clipPathUnits="userSpaceOnUse" id="cp1">
      <path d="M0 0L575 0L575 679L0 679Z" />
    </clipPath>
  </defs>
  <style>tspan { white-space:pre }.shp0 { fill: #000000 } </style>
  <g clip-path="url(#cp1)">
    <path fill-rule="evenodd" class="shp0" d="M571.09 577C569.09 581 564.43 583.67 559.76 583.67L453.09 583.67L404.43 670.33C402.43 674.34 397.76 677 393.09 677C388.43 677 384.42 674.34 381.76 670.33L286.42 505.67L191.09 668.33C189.1 672.33 184.42 675 179.76 675C175.09 675 171.09 672.33 168.43 668.33L119.76 583.67L13.09 583.67C8.42 583.67 4.43 581 1.76 577C-0.24 573 -0.91 567.66 1.76 563.67L101.09 387.67C89.76 383 82.42 371.67 83.76 359.66L92.42 297.67L50.42 252.33C41.09 241 41.76 225 51.09 215.67L93.09 171.67L85.76 110.33C84.42 95.67 93.76 83 107.76 80.33L168.43 69.66L198.43 15.67C201.76 9.66 207.09 5 213.76 3C220.43 1 227.76 1.66 233.76 5L288.43 31.67L344.43 5.67L345.09 5.67C358.42 0.34 373.1 5.67 379.09 18.33L408.42 72.33L469.09 84.33C482.42 87 491.76 100.34 490.42 113.67L481.76 175.67L523.75 221C533.09 232.34 532.42 248.34 523.1 257.67L481.1 301.66L488.43 363C489.1 375 483.09 385.66 473.1 390.34L571.76 563.67C574.42 567.66 574.42 573 571.09 577ZM270.43 478.33L257.09 455L229.76 467.66L229.09 467.66C215.75 473 201.09 467.66 195.09 455L165.75 401L127.76 394.33L35.76 557L127.76 557C132.42 557 136.43 559.66 139.1 563.67L180.43 635L270.43 478.33ZM274.42 417.66C281.76 413.67 291.09 413.67 298.43 417.66L353.09 444.33L383.09 390.34C387.09 383 394.43 378.33 401.76 377L461.76 367L454.43 305.67C453.09 297.67 455.76 289.67 461.76 283.67L504.43 239.67L462.43 194.33C457.09 189 454.43 180.33 455.76 172.33L464.43 111L403.76 99C396.43 98.34 389.76 93 385.76 86.33L356.43 31L355.76 31L300.42 56.34C293.09 60.33 283.76 60.33 276.43 56.34L221.76 29.67L191.76 83.67C187.76 91 180.43 95.67 173.1 97L112.43 107.67C111.76 108.34 111.76 109 111.76 109L119.09 169.66C120.43 177.66 117.76 185.66 111.76 191.67L69.76 235.66L111.09 281C116.42 286.33 119.09 295 117.76 303L109.09 364.33L170.43 375.67C178.43 376.33 185.09 381.67 189.1 388.33L218.43 443.66L219.09 443.66L274.42 417.66ZM537.76 557L446.43 396.33L406.43 403.66L376.43 457.67C371.76 466.34 362.43 471 353.09 471C349.09 471 345.09 470.33 341.09 468.33L286.42 441.67L281.76 443.66L296.43 469.66C297.76 471 298.43 472.33 299.09 474.34L393.09 637L434.42 563.67C436.42 559.66 441.09 557 445.76 557L537.76 557Z" />
    <path fill-rule="evenodd" class="shp0" d="M286.42 370.33C213.09 370.33 153.09 310.33 153.09 237C153.09 163.67 213.09 103.66 286.42 103.66C359.76 103.66 419.76 163.67 419.76 237C419.76 310.33 359.76 370.33 286.42 370.33ZM393.09 237C393.09 178.33 345.09 130.33 286.42 130.33C227.76 130.33 179.76 178.33 179.76 237C179.76 295.67 227.76 343.66 286.42 343.66C345.09 343.66 393.09 295.67 393.09 237Z" />
  </g>
</svg>