<svg xmlns="http://www.w3.org/2000/svg" viewBox="0 0 33 23" width="33" height="23">
	<style>
		tspan { white-space:pre }
		.shp0 { fill: #2d2d2d } 
	</style>
	<path id="Shape 1" class="shp0" d="M26.53 16.62C25.79 16.62 25.1 16.9 24.57 17.41C24.05 17.92 23.75 18.59 23.75 19.31C23.75 20.03 24.04 20.7 24.57 21.21C25.1 21.72 25.79 22 26.53 22C28.03 22 29.25 20.79 29.25 19.31C29.25 17.83 28.03 16.62 26.53 16.62ZM26.53 20.8C25.68 20.8 24.97 20.12 24.97 19.31C24.97 18.5 25.68 17.82 26.53 17.82C27.36 17.82 28.03 18.49 28.03 19.31C28.03 20.14 27.36 20.8 26.53 20.8ZM27.23 7.67C27.12 7.57 26.98 7.51 26.83 7.51L23.69 7.51C23.36 7.51 23.08 7.78 23.08 8.11L23.08 13.01C23.08 13.34 23.36 13.61 23.69 13.61L28.66 13.61C29 13.61 29.28 13.34 29.28 13.01L29.28 9.73C29.28 9.56 29.2 9.4 29.07 9.29L27.23 7.67ZM28.05 12.41L24.3 12.41L24.3 8.7L26.59 8.7L28.05 9.99L28.05 12.41ZM11.61 16.62C10.88 16.62 10.18 16.9 9.65 17.41C9.13 17.92 8.84 18.59 8.84 19.31C8.84 20.03 9.12 20.7 9.65 21.21C10.19 21.72 10.88 22 11.61 22C13.11 22 14.33 20.79 14.33 19.31C14.33 17.83 13.11 16.62 11.61 16.62ZM11.61 20.8C10.77 20.8 10.06 20.12 10.06 19.31C10.06 18.5 10.77 17.82 11.61 17.82C12.44 17.82 13.11 18.49 13.11 19.31C13.11 20.14 12.44 20.8 11.61 20.8ZM7.53 17.36L6.31 17.36L6.31 15.77C6.31 15.44 6.03 15.17 5.7 15.17C5.36 15.17 5.08 15.44 5.08 15.77L5.08 17.95C5.08 18.28 5.36 18.55 5.7 18.55L7.53 18.55C7.87 18.55 8.15 18.28 8.15 17.95C8.15 17.63 7.87 17.36 7.53 17.36ZM10.63 14.1C10.63 13.77 10.36 13.5 10.02 13.5L2.61 13.5C2.27 13.5 2 13.77 2 14.1C2 14.43 2.27 14.7 2.61 14.7L10.02 14.7C10.36 14.7 10.63 14.44 10.63 14.1ZM3.85 11.95L11.26 11.99C11.6 11.99 11.87 11.72 11.88 11.4C11.88 11.06 11.61 10.79 11.27 10.79L3.86 10.75C3.86 10.75 3.86 10.75 3.86 10.75C3.52 10.75 3.25 11.01 3.25 11.34C3.24 11.68 3.51 11.95 3.85 11.95ZM5.1 9.23L12.51 9.23C12.84 9.23 13.12 8.96 13.12 8.64C13.12 8.31 12.84 8.04 12.51 8.04L5.1 8.04C4.76 8.04 4.49 8.31 4.49 8.64C4.49 8.96 4.76 9.23 5.1 9.23ZM31.77 8.43L31.77 8.43L27.4 4.88C27.29 4.8 27.16 4.75 27.01 4.75L21.87 4.75L21.87 2.6C21.87 2.27 21.59 2 21.25 2L5.7 2C5.36 2 5.08 2.27 5.08 2.6L5.08 6.97C5.08 7.3 5.36 7.57 5.7 7.57C6.03 7.57 6.31 7.3 6.31 6.97L6.31 3.19L20.65 3.19L20.65 17.36L15.64 17.36C15.3 17.36 15.03 17.63 15.03 17.95C15.03 18.28 15.3 18.55 15.64 18.55L23.1 18.55C23.44 18.55 23.71 18.28 23.71 17.95C23.71 17.63 23.44 17.36 23.1 17.36L21.87 17.36L21.87 5.94L26.79 5.94L30.78 9.17L30.74 17.35L30.1 17.35C29.76 17.35 29.49 17.61 29.49 17.94C29.49 18.27 29.76 18.54 30.1 18.54L31.34 18.54C31.68 18.54 31.95 18.28 31.95 17.95L32 8.89C31.99 8.71 31.91 8.54 31.77 8.43Z" />
</svg>