<svg xmlns="http://www.w3.org/2000/svg" viewBox="0 0 802 804" width="30" height="30">
  <defs>
    <clipPath clipPathUnits="userSpaceOnUse" id="cp1">
      <path d="M0 0L802 0L802 804L0 804Z" />
    </clipPath>
  </defs>
  <style>tspan { white-space:pre }.shp0 { fill: #000000 } </style>
  <g clip-path="url(#cp1)">
    <path class="shp0" d="M608.91 530.9C582.75 505.07 550.08 505.07 524.08 530.9C504.25 550.57 484.42 570.23 464.92 590.24C459.58 595.74 455.08 596.9 448.58 593.23C435.75 586.23 422.08 580.57 409.75 572.9C352.25 536.74 304.08 490.24 261.42 437.9C240.25 411.9 221.41 384.07 208.24 352.74C205.58 346.4 206.08 342.24 211.25 337.07C231.08 317.9 250.41 298.23 269.91 278.56C297.08 251.23 297.08 219.23 269.75 191.73C254.25 176.07 238.75 160.73 223.25 145.07C207.25 129.07 191.41 112.9 175.24 97.06C149.08 71.57 116.41 71.57 90.41 97.23C70.41 116.9 51.25 137.07 30.92 156.4C12.08 174.24 2.58 196.07 0.58 221.57C-2.59 263.07 7.58 302.23 21.92 340.4C51.25 419.4 95.91 489.57 150.08 553.9C223.25 640.9 310.58 709.73 412.74 759.4C458.75 781.73 506.41 798.9 558.24 801.73C593.91 803.74 624.91 794.74 649.75 766.9C666.75 747.9 685.91 730.57 703.91 712.4C730.58 685.4 730.75 652.74 704.25 626.07C672.58 594.23 640.75 562.56 608.91 530.9ZM577.08 398.06L638.58 387.56C628.91 331.06 602.25 279.9 561.74 239.23C518.91 196.4 464.75 169.4 405.08 161.07L396.41 222.9C442.58 229.4 484.58 250.24 517.75 283.4C549.08 314.73 569.58 354.4 577.08 398.06ZM673.25 130.73C602.25 59.73 512.41 14.9 413.25 1.07L404.58 62.9C490.25 74.9 567.91 113.73 629.25 174.9C687.41 233.06 725.58 306.57 739.41 387.4L800.91 376.9C784.75 283.24 740.58 198.23 673.25 130.73Z" />
  </g>
</svg>